# xmcd
#
# Track frame offsets: 
#        150
#        26165
#        48457
#        72427
#        95357
#        119149
#        137288
#        167335
#        195338
#        218048
#        252923
#        271758
#        300683
#        320198
#        331343
#
# Disc length: 4659 seconds
#
# Revision: 1
# Processed by: cddbd v1.5.2PL0 Copyright (c) Steve Scherf et al.
# Submitted via: ExactAudioCopy v1.0b3
#
DISCID=d712310f
DTITLE=RTSI orchestra - Bruno Amaducci - Concertos for 2,3,4 Harpsicho
DTITLE=rds and Strings
DYEAR=1976
DGENRE=Instrumental
TTITLE0=Concerto No. 1 in D minor ( 3 Harpsichords and strings) BWV 1063
TTITLE0=Allegro
TTITLE1=Concerto No. 1 in D minor ( 3 Harpsichords and strings) BWV 1063
TTITLE1=Alla Siciliana
TTITLE2=Concerto No. 1 in D minor ( 3 Harpsichords and strings) BWV 1063
TTITLE2=Allegro
TTITLE3=Concerto No. 1 in C minor ( 2 Harpsichords and strings) BWV 1060
TTITLE3=Allegro
TTITLE4=Concerto No. 1 in C minor ( 2 Harpsichords and strings) BWV 1060
TTITLE4=Adagio
TTITLE5=Concerto No. 1 in C minor ( 2 Harpsichords and strings) BWV 1060
TTITLE5=Allegro
TTITLE6=Concerto No. 2 in C major ( 3 Harpsichords and strings) BWV 1064
TTITLE6=Allegro
TTITLE7=Concerto No. 2 in C major ( 3 Harpsichords and strings) BWV 1064
TTITLE7=Adagio
TTITLE8=Concerto No. 2 in C major ( 3 Harpsichords and strings) BWV 1064
TTITLE8=Allegro
TTITLE9=Concerto No. 2 in C major ( 2 Harpsichords and strings) BWV 1061
TTITLE9=Allegro maestoso
TTITLE10=Concerto No. 2 in C major ( 2 Harpsichords and strings) BWV 106
TTITLE10=1 - Adagio ovvero largo
TTITLE11=Concerto No. 2 in C major ( 2 Harpsichords and strings) BWV 106
TTITLE11=1 - Fuga
TTITLE12=Concerto in A minor ( 4 Harpsichords and strings) BWV 1065 - Al
TTITLE12=legro
TTITLE13=Concerto in A minor ( 4 Harpsichords and strings) BWV 1065 - La
TTITLE13=rgo
TTITLE14=Concerto in A minor ( 4 Harpsichords and strings) BWV 1065 - Al
TTITLE14=legro
EXTD=RTSI Orchestra, Bruno Maducci
EXTT0=
EXTT1=
EXTT2=
EXTT3=
EXTT4=
EXTT5=
EXTT6=
EXTT7=
EXTT8=
EXTT9=
EXTT10=
EXTT11=
EXTT12=
EXTT13=
EXTT14=
PLAYORDER=
